Coordinates
version=1
nRows=17
nColumns=38
inDegrees=no

Units are S.I. units (second, meters, Newtons, ...)
If the header above contains a line with 'inDegrees', this indicates whether rotational values are in degrees (yes) or radians (no).

endheader
time	pelvis_tilt	pelvis_list	pelvis_rotation	pelvis_tx	pelvis_ty	pelvis_tz	hip_flexion_r	hip_adduction_r	hip_rotation_r	knee_angle_r	ankle_angle_r	subtalar_angle_r	mtp_angle_r	hip_flexion_l	hip_adduction_l	hip_rotation_l	knee_angle_l	ankle_angle_l	subtalar_angle_l	mtp_angle_l	lumbar_extension	lumbar_bending	lumbar_rotation	arm_flex_r	arm_add_r	arm_rot_r	elbow_flex_r	pro_sup_r	wrist_flex_r	wrist_dev_r	arm_flex_l	arm_add_l	arm_rot_l	elbow_flex_l	pro_sup_l	wrist_flex_l	wrist_dev_l
20	0.621518	1.5549	1.03015	0.687586	-0.110141	0.936576	-0.112153	-0.0959283	-0.207909	0	-0.0370529	0	0	-0.112743	-0.121361	-0.339491	0	-0.0484372	0	0	-0.144919	-0.00718988	0.0436515	0.148365	-0.233922	0.660986	0.404091	1.13012	0	0	0.122753	-0.249939	0.484758	0.63699	1.09042	0	0
20.01	0.619105	1.55461	1.03285	0.687685	-0.11046	0.936638	-0.111444	-0.0957283	-0.208048	0	-0.037169	0	0	-0.111874	-0.121659	-0.338814	0	-0.0487415	0	0	-0.145998	-0.0073231	0.0439676	0.147583	-0.231999	0.648945	0.401134	1.14403	0	0	0.124928	-0.251562	0.489756	0.63825	1.08045	0	0
20.02	0.591801	1.55436	1.06062	0.687671	-0.110676	0.936661	-0.110404	-0.0959709	-0.208782	0	-0.0372827	0	0	-0.110607	-0.121533	-0.338318	0	-0.0488736	0	0	-0.147059	-0.00795966	0.0445716	0.146474	-0.228301	0.627134	0.395946	1.15713	0	0	0.127918	-0.253159	0.49694	0.63957	1.06688	0	0
20.03	0.533902	1.55315	1.11876	0.687694	-0.110964	0.936638	-0.108142	-0.0962272	-0.209483	0	-0.037237	0	0	-0.108134	-0.121385	-0.338484	0	-0.0485586	0	0	-0.146889	-0.00894813	0.046545	0.144856	-0.21868	0.578184	0.382053	1.15977	0	0	0.131844	-0.255325	0.50837	0.639462	1.05012	0	0
20.04	0.359576	1.54323	1.29351	0.687778	-0.111191	0.935773	-0.0950925	-0.0960541	-0.212794	0	-0.035234	0	0	-0.0944446	-0.121411	-0.345804	0	-0.0394596	0	0	-0.1369	-0.0104886	0.0503892	0.145411	-0.192012	0.450817	0.341498	1.1192	0	0	0.136612	-0.258495	0.52574	0.639675	1.02929	0	0
20.05	0.490859	1.55301	1.16209	0.687615	-0.111434	0.936718	-0.10653	-0.0970716	-0.209712	0	-0.0371291	0	0	-0.10598	-0.120753	-0.338432	0	-0.0475716	0	0	-0.149447	-0.00967908	0.046105	0.145047	-0.218473	0.578011	0.379838	1.15933	0	0	0.134515	-0.25613	0.507211	0.639357	1.05061	0	0
20.06	0.538956	1.55404	1.1138	0.687467	-0.11167	0.936826	-0.107225	-0.0969031	-0.209385	0	-0.0372473	0	0	-0.106613	-0.12099	-0.338387	0	-0.046742	0	0	-0.152088	-0.00798059	0.0411014	0.150538	-0.239506	0.701152	0.406193	1.05771	0	0	0.129159	-0.248844	0.46389	0.63495	1.12983	0	0
20.07	0.525624	1.55364	1.12695	0.687485	-0.11202	0.936874	-0.106025	-0.0969412	-0.20934	0	-0.0372755	0	0	-0.105285	-0.121049	-0.338238	0	-0.0460244	0	0	-0.153214	-0.00816693	0.0410767	0.150922	-0.239149	0.701272	0.404413	1.05808	0	0	0.130121	-0.249245	0.462821	0.635434	1.12801	0	0
20.08	0.510683	1.55317	1.14162	0.687491	-0.112314	0.936896	-0.104629	-0.0970206	-0.209356	0	-0.0372628	0	0	-0.103725	-0.121113	-0.338219	0	-0.0453937	0	0	-0.154381	-0.00839307	0.0411108	0.151515	-0.238673	0.701191	0.402452	1.05873	0	0	0.131002	-0.249713	0.461518	0.636037	1.12618	0	0
20.09	0.506169	1.55294	1.14599	0.687496	-0.112617	0.936956	-0.103568	-0.0970841	-0.209595	0	-0.0371956	0	0	-0.10243	-0.12122	-0.338039	0	-0.0445962	0	0	-0.155903	-0.00854843	0.0410682	0.152211	-0.238067	0.701069	0.400014	1.05958	0	0	0.131912	-0.250062	0.460134	0.636477	1.12433	0	0
20.1	0.504548	1.55319	1.1474	0.687449	-0.112943	0.937074	-0.102966	-0.0973119	-0.209945	0	-0.0373321	0	0	-0.101634	-0.121042	-0.33756	0	-0.0438754	0	0	-0.158048	-0.00882655	0.0410995	0.153019	-0.237473	0.70099	0.397182	1.06056	0	0	0.132929	-0.250117	0.458259	0.636907	1.12246	0	0
20.11	0.498256	1.55367	1.15341	0.687398	-0.113269	0.937211	-0.102497	-0.0977193	-0.210348	0	-0.0375739	0	0	-0.101033	-0.120659	-0.337189	0	-0.0431165	0	0	-0.160589	-0.0092551	0.0412323	0.153876	-0.237021	0.70106	0.394269	1.06141	0	0	0.134078	-0.249915	0.456013	0.637429	1.12119	0	0
20.12	0.485682	1.55402	1.16549	0.687318	-0.113554	0.937313	-0.10172	-0.0981671	-0.210322	0	-0.037959	0	0	-0.100266	-0.120251	-0.336988	0	-0.0424876	0	0	-0.163033	-0.00967276	0.0416504	0.154567	-0.236984	0.701	0.392699	1.06172	0	0	0.135158	-0.249848	0.45377	0.637522	1.12102	0	0
20.13	0.474015	1.55445	1.17637	0.68732	-0.113853	0.937439	-0.100977	-0.0986234	-0.209825	0	-0.0382892	0	0	-0.0997248	-0.119859	-0.337347	0	-0.0419436	0	0	-0.165598	-0.0102907	0.0429691	0.154346	-0.235349	0.688226	0.389677	1.08499	0	0	0.136819	-0.251372	0.458193	0.63825	1.11047	0	0
20.14	0.504166	1.55662	1.14754	0.687032	-0.113514	0.937613	-0.105004	-0.0989994	-0.209883	0	-0.0395312	0	0	-0.102064	-0.11946	-0.339026	0	-0.0413496	0	0	-0.165525	-0.0109906	0.0432823	0.151889	-0.235732	0.689911	0.388831	1.08136	0	0	0.136085	-0.251088	0.455286	0.637271	1.11191	0	0
20.15	0.495104	1.55669	1.15494	0.687007	-0.114136	0.937759	-0.102269	-0.0993512	-0.209652	0	-0.0385135	0	0	-0.100608	-0.119185	-0.338807	0	-0.040356	0	0	-0.170522	-0.0108951	0.0438052	0.154457	-0.23776	0.701029	0.390851	1.06028	0	0	0.137914	-0.24951	0.44755	0.635598	1.12067	0	0
20.16	0.476272	1.55635	1.17184	0.687247	-0.11504	0.937869	-0.0989281	-0.099653	-0.20918	0	-0.0374324	0	0	-0.0983649	-0.119015	-0.338231	0.000635878	-0.0392166	0	0	-0.175306	-0.0110091	0.0450169	0.157547	-0.238329	0.700817	0.391725	1.05922	0	0	0.140477	-0.249313	0.4453	0.635532	1.12032	0	0
